<svg xmlns="http://www.w3.org/2000/svg" viewBox="0 0 64 64">
  <title>RodeoGuardian favicon</title>
  <defs>
    <linearGradient id="rgGradient" x1="16" y1="4" x2="48" y2="60" gradientUnits="userSpaceOnUse">
      <stop offset="0" stop-color="#C63B3F" />
      <stop offset="1" stop-color="#6D1B1E" />
    </linearGradient>
  </defs>
  <path d="M32 4c-.92 0-1.82.24-2.62.7L10 15.6v17.6c0 13.6 10 25.8 22 29.8 12-4 22-16.2 22-29.8V15.6L34.62 4.7C33.82 4.24 32.92 4 32 4z" fill="url(#rgGradient)" />
  <path d="M38 18h-6v-6h-4v6h-6v4h6v6h4v-6h6z" fill="#F8D6A6" />
  <path d="M18.4 34c-2.8 0-5 2.4-5 5.6v7.6c0 2 1.5 3.8 3.6 3.8h4.8l2.2 8h5.6l1.7-6.8h11.8l1.7 6.8h5.6l2.2-8h4.8c2.1 0 3.6-1.8 3.6-3.8v-6.4c0-6.3-5.1-11.4-11.4-11.4h-1.1l-7.2-5.8H26.4l-4.6 6.8c-3 .4-5.4 3-5.4 6.4z" fill="#F5F2EE" />
</svg>
